<svg width="1100" height="760" viewBox="0 0 1100 760" fill="none" xmlns="http://www.w3.org/2000/svg" role="img" aria-labelledby="title desc">
  <title id="title">Jardín tranquilo</title>
  <desc id="desc">Un jardín sereno con flores, hojas y luz de atardecer.</desc>
  <rect width="1100" height="760" rx="44" fill="#FDF5EE"/>
  <path d="M0 554C128 489 221 500 342 532C462 564 584 636 735 581C886 526 973 420 1100 455V760H0V554Z" fill="#E5EFE8"/>
  <path d="M0 612C133 572 257 572 371 612C508 660 641 719 790 650C929 586 1003 543 1100 564V760H0V612Z" fill="#C7DACD"/>
  <circle cx="824" cy="192" r="94" fill="#F7C982" opacity=".7"/>
  <circle cx="824" cy="192" r="146" stroke="#F7C982" stroke-width="2" opacity=".26"/>
  <path d="M151 528C183 441 246 374 339 329C419 290 469 223 477 126" stroke="#7C9A83" stroke-width="16" stroke-linecap="round"/>
  <path d="M294 355C257 316 212 303 158 318C205 363 251 375 294 355Z" fill="#8EAD93"/>
  <path d="M384 278C360 225 324 194 276 185C298 251 333 283 384 278Z" fill="#A7B99D"/>
  <path d="M465 170C421 142 378 139 337 160C386 205 429 208 465 170Z" fill="#7F9C80"/>
  <path d="M592 594C617 502 678 432 775 384C858 343 910 277 925 185" stroke="#6F8B7A" stroke-width="15" stroke-linecap="round"/>
  <path d="M732 408C689 373 641 364 588 382C642 430 690 439 732 408Z" fill="#8FAF99"/>
  <path d="M835 331C812 279 776 249 727 239C749 306 785 337 835 331Z" fill="#A9C2AA"/>
  <path d="M918 219C879 190 838 184 797 201C840 247 882 254 918 219Z" fill="#78977D"/>
  <g transform="translate(238 542)">
    <circle r="42" fill="#B95470"/>
    <circle cx="-38" cy="-9" r="34" fill="#D98491"/>
    <circle cx="37" cy="-12" r="34" fill="#D98491"/>
    <circle cx="-22" cy="36" r="34" fill="#EAA8A1"/>
    <circle cx="24" cy="35" r="34" fill="#EAA8A1"/>
    <circle r="18" fill="#F2BC65"/>
  </g>
  <g transform="translate(918 474) scale(.86)">
    <circle r="42" fill="#A84863"/>
    <circle cx="-38" cy="-9" r="34" fill="#D07C8A"/>
    <circle cx="37" cy="-12" r="34" fill="#D07C8A"/>
    <circle cx="-22" cy="36" r="34" fill="#EEB19D"/>
    <circle cx="24" cy="35" r="34" fill="#EEB19D"/>
    <circle r="18" fill="#F4BF72"/>
  </g>
  <g transform="translate(520 604) scale(.7)">
    <circle r="42" fill="#9C4861"/>
    <circle cx="-38" cy="-9" r="34" fill="#CB7484"/>
    <circle cx="37" cy="-12" r="34" fill="#CB7484"/>
    <circle cx="-22" cy="36" r="34" fill="#E9A39A"/>
    <circle cx="24" cy="35" r="34" fill="#E9A39A"/>
    <circle r="18" fill="#F2BC65"/>
  </g>
  <path d="M48 680C157 635 284 631 417 680C551 730 682 725 812 675C923 633 1014 627 1100 656V760H48V680Z" fill="#90AD92" opacity=".62"/>
  <path d="M0 705C174 668 320 680 439 718C577 762 717 767 854 725C950 696 1032 690 1100 710V760H0V705Z" fill="#6F8B7A" opacity=".76"/>
  <g opacity=".5" stroke="#FFFFFF" stroke-width="3" stroke-linecap="round">
    <path d="M70 582C119 552 171 542 225 552"/>
    <path d="M721 536C780 495 839 477 898 482"/>
    <path d="M411 462C466 430 518 419 567 429"/>
  </g>
</svg>
